<svg width="16" height="14" viewBox="0 0 16 14" fill="none" xmlns="http://www.w3.org/2000/svg">
<path d="M15 0.25C15.4142 0.25 15.75 0.585786 15.75 1C15.75 1.41421 15.4142 1.75 15 1.75H1C0.585787 1.75 0.25 1.41421 0.25 1C0.25 0.585786 0.585787 0.25 1 0.25H15Z" fill="#795547"/>
<path d="M15 6.25C15.4142 6.25 15.75 6.58579 15.75 7C15.75 7.41421 15.4142 7.75 15 7.75H9C8.58579 7.75 8.25 7.41421 8.25 7C8.25 6.58579 8.58579 6.25 9 6.25H15Z" fill="#795547"/>
<path d="M15 12.25C15.4142 12.25 15.75 12.5858 15.75 13C15.75 13.4142 15.4142 13.75 15 13.75H12C11.5858 13.75 11.25 13.4142 11.25 13C11.25 12.5858 11.5858 12.25 12 12.25H15Z" fill="#795547"/>
</svg>
