<svg width="28" height="26" viewBox="0 0 28 26" fill="none" xmlns="http://www.w3.org/2000/svg">
<g clip-path="url(#clip0_15_1224)">
<path d="M27.8392 0H27.0366C25.7268 0 24.5614 0.599219 23.8285 1.52344H23.8264C22.5149 1.52344 21.3487 2.12367 20.6162 3.04941V3.04688C18.4032 3.04688 16.6034 4.75556 16.6034 6.85547V10.5192L14.1422 12.8229L11.681 10.5192V6.85547C11.681 4.75556 9.88117 3.04688 7.66825 3.04688V3.04941C6.93573 2.12367 5.76951 1.52344 4.45803 1.52344H4.45589C3.72305 0.599219 2.55758 0 1.24781 0H0.445251V11.9651L6.13168 18.3828H5.26059V26H23.0238V18.3828H22.1527L27.8392 11.9651V0ZM10.0759 6.85547V9.16398C9.58625 8.88354 9.03891 8.70605 8.47081 8.64348V5.33203C8.47081 5.11062 8.44951 4.89328 8.41142 4.68203C9.37625 4.98012 10.0759 5.84137 10.0759 6.85547ZM5.26059 3.17738C6.19476 3.49182 6.8657 4.3388 6.8657 5.33203V8.77089C6.4836 8.87711 6.1204 9.03698 5.78813 9.24518L5.26059 8.74504V3.17738ZM13.3396 24.4766H6.8657V19.9062H13.3396V24.4766ZM13.3396 18.3828H8.22897L2.05036 11.4101V1.654C2.98454 1.96828 3.65547 2.81531 3.65547 3.80859V9.37625L8.70569 14.1695L9.84104 13.0925L6.96249 10.3604C7.28244 10.2145 7.63503 10.138 8.00057 10.138C8.64368 10.138 9.24827 10.3756 9.70305 10.8073L13.3396 14.2112V18.3828ZM21.4187 5.33203C21.4187 4.3388 22.0896 3.49182 23.0238 3.17738V8.74504L22.4963 9.24518C22.164 9.03698 21.8008 8.87711 21.4187 8.77089V5.33203ZM18.2085 6.85547C18.2085 5.84142 18.9082 4.98012 19.873 4.68203C19.8339 4.89672 19.814 5.11416 19.8136 5.33203V8.64348C19.2455 8.70605 18.6982 8.88354 18.2085 9.16398V6.85547ZM21.4187 24.4766H14.9448V19.9062H21.4187V24.4766ZM26.234 11.4101L20.0554 18.3828H14.9448V14.2112L18.5814 10.8073C19.0361 10.3756 19.6407 10.138 20.2838 10.138C20.6494 10.138 21.002 10.2145 21.3219 10.3604L18.4434 13.0924L19.5787 14.1695L24.6289 9.3763V3.80859C24.6289 2.81536 25.2999 1.96838 26.234 1.65395V11.4101Z" fill="#8789A3"/>
<path d="M18.2085 21.4297H19.8132V22.9531H18.2085V21.4297Z" fill="#8789A3"/>
<path d="M8.47083 21.4297H10.0755V22.9531H8.47083V21.4297Z" fill="#8789A3"/>
</g>
<defs>
<clipPath id="clip0_15_1224">
<rect width="27.3939" height="26" fill="white" transform="translate(0.445251)"/>
</clipPath>
</defs>
</svg>
