<svg width="31" height="28" viewBox="0 0 31 28" fill="none" xmlns="http://www.w3.org/2000/svg">
<g clip-path="url(#clip0_15_1216)">
<path d="M24.3799 2.21758L21.2513 3.40539L20.6398 2.07812L19.2517 2.22086C17.8589 2.36354 16.6461 2.84118 15.4862 3.71044C14.3262 2.83905 13.1218 2.36184 11.7482 2.2208L10.3597 2.07812L9.74862 3.40539L6.61936 2.21758L0.74939 15.2173L4.25449 16.486V25.9215L15.4855 20.5918L26.7166 25.9215V16.4947L30.2505 15.2177L24.3799 2.21758ZM5.98238 23.2681V17.1119L13.3408 19.7762L5.98238 23.2681ZM14.6217 18.4844L3.04627 14.2933L7.54329 4.33415L9.05557 4.90864L5.19282 13.2935L14.6217 16.7352L14.6217 18.4844ZM14.6217 14.9778L8.11453 12.6027C9.22618 12.0635 10.5462 11.9936 11.7511 12.4589L14.6217 13.6516L14.6217 14.9778ZM14.6217 11.8614L12.4146 10.9446C11.0473 10.4133 9.57236 10.3767 8.23386 10.7856L11.4348 3.83835C11.6127 3.88134 12.9838 3.83988 14.6217 5.159V11.8614ZM16.3494 5.16004C17.9567 3.87215 19.4739 3.86039 19.5651 3.83841L22.7528 10.7587C21.4915 10.3772 20.1201 10.4286 18.7915 10.9446L16.3494 11.8937V5.16004ZM16.3494 13.6659L19.4457 12.4626C20.6166 12.0073 21.8383 12.0669 22.8986 12.5961L16.3494 14.9795V13.6659ZM24.9887 23.2681L17.6321 19.7768L24.9887 17.1188V23.2681ZM16.3494 18.4855V16.7356L25.807 13.2941L21.9436 4.90864L23.4562 4.3342L27.9532 14.2929L16.3494 18.4855Z" fill="#8789A3"/>
</g>
<defs>
<clipPath id="clip0_15_1216">
<rect width="29.5011" height="28" fill="white" transform="translate(0.74939)"/>
</clipPath>
</defs>
</svg>
