<?xml version="1.0" encoding="utf-8"?>
<!-- Generator: Adobe Illustrator 24.0.3, SVG Export Plug-In . SVG Version: 6.00 Build 0)  -->
<!DOCTYPE svg PUBLIC "-//W3C//DTD SVG 1.1//EN" "http://www.w3.org/Graphics/SVG/1.1/DTD/svg11.dtd" [
	<!ENTITY ns_extend "http://ns.adobe.com/Extensibility/1.0/">
	<!ENTITY ns_ai "http://ns.adobe.com/AdobeIllustrator/10.0/">
	<!ENTITY ns_graphs "http://ns.adobe.com/Graphs/1.0/">
	<!ENTITY ns_vars "http://ns.adobe.com/Variables/1.0/">
	<!ENTITY ns_imrep "http://ns.adobe.com/ImageReplacement/1.0/">
	<!ENTITY ns_sfw "http://ns.adobe.com/SaveForWeb/1.0/">
	<!ENTITY ns_custom "http://ns.adobe.com/GenericCustomNamespace/1.0/">
	<!ENTITY ns_adobe_xpath "http://ns.adobe.com/XPath/1.0/">
]>
<svg version="1.1" id="Layer_1" xmlns:x="&ns_extend;" xmlns:i="&ns_ai;" xmlns:graph="&ns_graphs;"
	 xmlns="http://www.w3.org/2000/svg" xmlns:xlink="http://www.w3.org/1999/xlink" x="0px" y="0px" viewBox="0 0 399.9 453.9"
	 style="enable-background:new 0 0 399.9 453.9;" xml:space="preserve">
<style type="text/css">
	.st0{fill-rule:evenodd;clip-rule:evenodd;fill:#CCCCCC;stroke:#000000;stroke-linecap:round;stroke-linejoin:round;}
</style>
<metadata>
	<sfw  xmlns="&ns_sfw;">
		<slices></slices>
		<sliceSourceBounds  bottomLeftOrigin="true" height="453.9" width="399.9" x="143.8" y="383.3"></sliceSourceBounds>
	</sfw>
</metadata>
<path class="st0" d="M199.2,0.5c-12.6,19.1-35.7,26.5-56.1,34.2c-19.2,7.2-38.4,14.5-58.3,19.5C59.4,61.9,32.9,67.7,9.8,81.3
	c-4.3,1.9,2.9,2.6,3.8,5c10.1,12.2,9.5,29.5,7.7,44.3c-2.6,16.7-12,31.5-15.1,48.1C-4.4,221.5,0,267.5,17.6,307.5
	c5.6,17.9,6,39-3.9,55.5c-1,2.7-5.6,5-6,6.7c19.9,13.1,43.7,18.5,66.1,25.4c22.5,6.2,45,12.5,66.4,22.2
	c20.9,8.9,43.8,17.2,58.7,35.2c2,3.3,4.1-3.7,6.5-4.9c21.1-21.3,51.4-28.6,78.3-40c33.9-11.7,70.1-17.8,101.8-34.8
	c1.9-1.7,8.2-3.6,3.2-5.6c-13.5-13.2-12.9-34.4-8.9-51.4c4.7-15.8,12.3-30.7,15.1-47c8.8-41.5,5.4-86.2-13-124.7
	c-6-17.1-7.5-37.6,1.5-54c1.3-3.1,5.4-5.5,6.9-7.3c-21-13.9-46.1-19.5-69.9-27c-21.2-5.7-41.9-12.5-62.3-20.7
	c-19-7.6-39.9-14-54.3-29.2C201.8,4.7,200.4,0.2,199.2,0.5L199.2,0.5z M198.7,32.1c0.4,0,0.8,0,1.2,0c13.5-0.6,23,16.3,15.4,27.5
	c-6.4,11.8-25.5,11.3-31.3-0.8C177.5,47.7,186.1,32.6,198.7,32.1L198.7,32.1z M162.2,49.2c1.2-0.1-0.4,2.5,0,4.4
	c-12.1,3.3-25.1,8.3-36.5,14.7c-18.4,6.5-35,21.2-38.9,40.9c-6.5-0.1-13.1,0.2-19.4,2.1c-13.1,3.1-20.1,15.6-26.7,26.1
	c3-14.2,3.6-29.2-0.7-43.2c-3.1-4.3,1.5-5.3,5-6.6C84.5,76.2,123.7,63.8,162.2,49.2L162.2,49.2z M238.5,49.5
	c39.8,17.4,83,25.2,123.2,41.4c-4.6,14.3-5.6,29.9-2.6,44.6c-7.2-17.8-26.7-28.5-45.6-26.9c-2.1-12.3-9.9-23.2-19.9-30.4
	c-17.2-8.8-35.9-20.2-55.1-24.3L238.5,49.5L238.5,49.5z M168.4,72.3c11.3,1,18.4,11.8,25.1,19.8c2.3,2.6,4.5,7.2,6.6,8.8
	c7.6-10.7,15.5-22.9,28-28.2c10.8-1.5,20.4,6,30.2,9.6c10.4,5,21.7,9.7,30,17.8c6.1,8.8,4.8,20.1,7.1,30.1
	c12.4-0.5,26.6-4.6,37.7,2.6c13.8,17.9,22.2,39.6,26.8,61.6c8.6,42.7-0.6,89-26,124.5c-9.6,7.1-22.6,4.4-33.7,3.9
	c-5.9-2.4-5,3.4-5.4,7.6c-1.1,10.3-3,23.1-13.8,27.8c-13.8,8.4-28.6,15.3-43.7,20.8c-10.5,4.7-19.3-5.4-25.5-12.4
	c-4.3-5-8.1-10.3-11.8-15.7c-8.1,10.6-15.4,23.6-28.2,28.9c-10.5,1.4-19.8-5.7-29.2-9.2c-10.8-5-22-10.2-31.1-18
	c-6.8-8.5-7.5-20-7.4-30.5c-12.2-0.2-26.1,4.7-37.2-2.3C41.7,285.7,32,241.1,39,199.4c4.1-23.7,12.9-47,27.3-66.2
	c10.2-7,23.7-3.2,35.2-3c5.2,1.7,2.2-6,3.6-8.9c1-10.5,3.6-23,14.6-27.5c13.6-8.2,28.1-14.9,42.9-20.3
	C164.5,73,166.4,72.4,168.4,72.3L168.4,72.3z M359.9,315.8c-3.2,15.2-3.5,31.7,2.6,46.3c-38.8,14.8-80.4,23.5-118.8,40
	c-4.5,3-6.2,2.3-5.7-2.8c13.4-2.1,25.6-8.3,37.4-14.7c18.3-6.2,34.7-20.9,38.6-40.4c6.9,0,14.3-0.5,21-2.9
	c12.2-3.4,18.5-15.2,24.8-25.2L359.9,315.8L359.9,315.8z M40.7,316c0.1,0,0.5,0.9,0.7,1.2c6.9,17.6,26.1,28.5,44.8,27.1
	c2.5,12.2,10.5,22.7,20.4,30c16.9,8.5,33,19.6,51.7,24.1c4.8-0.2,5.1,2.2,4.2,6.3c-39.6-19.3-84.1-26.4-125.1-42.5
	C41.7,347.9,43.8,331.4,40.7,316C40.7,316.1,40.7,316.1,40.7,316L40.7,316z M198.7,386.8c0.4,0,0.8,0,1.2,0
	c13.5-0.6,23,16.3,15.4,27.5c-6.4,11.8-25.6,11.3-31.3-0.8C177.5,402.3,186.1,387.2,198.7,386.8L198.7,386.8z"/>
</svg>
